HIERARCHY
ROOT Hips
{
	OFFSET 0.000000 0.000000 0.000000 
	CHANNELS 6 Xposition Yposition Zposition Zrotation Yrotation Xrotation
	JOINT LeftUpLeg
	{
		OFFSET 1.363060 -1.794630 0.839290 
		CHANNELS 3 Zrotation Yrotation Xrotation
		JOINT LeftLeg
		{
			OFFSET 2.448110 -6.726130 0.000000 
			CHANNELS 3 Zrotation Yrotation Xrotation
			JOINT LeftFoot
			{
				OFFSET 2.562200 -7.039590 0.000000 
				CHANNELS 3 Zrotation Yrotation Xrotation
				JOINT LeftToeBase
				{
					OFFSET 0.157640 -0.433110 2.322550 
					CHANNELS 3 Zrotation Yrotation Xrotation
					End Site
					{
						OFFSET 0.000000 0.000000 0.000000 
					}
				}
			}
		}
	}
	JOINT RightUpLeg
	{
		OFFSET -1.305520 -1.794630 0.839290 
		CHANNELS 3 Zrotation Yrotation Xrotation
		JOINT RightLeg
		{
			OFFSET -2.542530 -6.985550 0.000000 
			CHANNELS 3 Zrotation Yrotation Xrotation
			JOINT RightFoot
			{
				OFFSET -2.568260 -7.056230 0.000000 
				CHANNELS 3 Zrotation Yrotation Xrotation
				JOINT RightToeBase
				{
					OFFSET -0.164730 -0.452590 2.363150 
					CHANNELS 3 Zrotation Yrotation Xrotation
					End Site
					{
						OFFSET 0.000000 0.000000 0.000000 
					}
				}
			}
		}
	}
	JOINT Spine
	{
		OFFSET 0.028270 2.035590 -0.193380 
		CHANNELS 3 Zrotation Yrotation Xrotation
		JOINT Spine1
		{
			OFFSET 0.056720 2.048850 -0.042750 
			CHANNELS 3 Zrotation Yrotation Xrotation
			JOINT Neck1
			{
				OFFSET -0.054170 1.746240 0.172020 
				CHANNELS 3 Zrotation Yrotation Xrotation
				JOINT Head
				{
					OFFSET 0.104070 1.761360 -0.123970 
					CHANNELS 3 Zrotation Yrotation Xrotation
					End Site
					{
						OFFSET 0.000000 0.000000 0.000000 
					}
				}
			}
			JOINT LeftArm
			{
				OFFSET 3.362410 1.200890 -0.311210 
				CHANNELS 3 Zrotation Yrotation Xrotation
				JOINT LeftForeArm
				{
					OFFSET 4.983000 -0.000000 -0.000000 
					CHANNELS 3 Zrotation Yrotation Xrotation
					JOINT LeftHand
					{
						OFFSET 3.483560 -0.000000 -0.000000 
						CHANNELS 3 Zrotation Yrotation Xrotation
						JOINT LeftHandIndex1
						{
							OFFSET 0.715260 -0.000000 -0.000000 
							CHANNELS 3 Zrotation Yrotation Xrotation
							End Site
							{
								OFFSET 0.000000 0.000000 0.000000 
							}
						}
					}
				}
			}
			JOINT RightArm
			{
				OFFSET -3.136600 1.374050 -0.404650 
				CHANNELS 3 Zrotation Yrotation Xrotation
				JOINT RightForeArm
				{
					OFFSET -5.241900 -0.000000 -0.000000 
					CHANNELS 3 Zrotation Yrotation Xrotation
					JOINT RightHand
					{
						OFFSET -3.444170 -0.000000 -0.000000 
						CHANNELS 3 Zrotation Yrotation Xrotation
						JOINT RightHandIndex1
						{
							OFFSET -0.622530 -0.000000 -0.000000 
							CHANNELS 3 Zrotation Yrotation Xrotation
							End Site
							{
								OFFSET 0.000000 0.000000 0.000000 
							}
						}
					}
				}
			}
		}
	}
}
MOTION
Frames: 9
Frame Time: 0.041667
0.827289 17.805297 -14.187251 -2.123050 -2.157544 7.121697 -14.049078 4.384068 -15.336233 -0.484761 5.678601 15.621228 -0.570541 4.456062 -0.220134 0.140600 -2.416800 -6.659100 18.593615 2.770957 -13.496545 -0.204124 -6.733406 18.933660 -0.076519 -1.233624 -3.921067 -0.379400 -3.955700 10.952100 1.533117 -1.094619 -1.995281 0.987783 -0.909660 8.611825 2.111244 0.694552 31.351896 0.397100 0.666600 12.345100 -96.563782 -7.837057 23.622290 6.353291 -14.949071 -0.842122 -0.200146 -0.684053 2.591061 -7.125000 0.000000 0.000000 93.786812 6.498195 8.187140 -9.667623 21.365505 -2.150277 0.743036 0.935274 33.868606 7.125000 0.000000 0.000000 
0.828507 17.805297 -14.180755 -2.116233 -2.149923 7.122186 -14.071881 4.422241 -15.321099 -0.486067 5.671091 15.601440 -0.574397 4.473078 -0.246573 0.145700 -2.460200 -6.779400 18.578522 2.765333 -13.473115 -0.203490 -6.730085 18.925865 -0.075776 -1.238888 -3.932006 -0.377900 -3.947900 10.930200 1.530824 -1.098039 -1.996108 0.984711 -0.911706 8.625470 2.145838 0.691824 31.422380 0.415700 0.668100 12.383000 -96.595384 -7.861086 23.624618 6.400585 -15.032281 -0.856990 -0.201790 -0.682520 2.602505 -7.125000 0.000000 0.000000 93.793045 6.504938 8.226284 -9.707313 21.428667 -2.166046 0.739891 0.938556 33.753748 7.125000 0.000000 0.000000 
0.830741 17.806109 -14.175172 -2.127758 -2.077443 7.133388 -14.064351 4.374780 -15.306733 -0.487325 5.668738 15.592606 -0.586508 4.528114 -0.242064 0.153100 -2.521000 -6.947800 18.589516 2.720995 -13.453658 -0.199922 -6.717008 18.892283 -0.070090 -1.270731 -3.937288 -0.379500 -3.956600 10.954600 1.537756 -1.141311 -2.006823 0.988113 -0.932877 8.605645 2.141782 0.695875 31.487542 0.414700 0.670300 12.418900 -96.598821 -7.891683 23.881145 6.418020 -15.063569 -0.860146 -0.201746 -0.683128 2.333544 -7.125000 0.000000 0.000000 93.772597 6.509989 8.209919 -9.723839 21.453441 -2.172999 0.737253 0.940900 33.734706 7.125000 0.000000 0.000000 
0.832263 17.806820 -14.169284 -2.154808 -2.031532 7.141500 -14.044134 4.373773 -15.300515 -0.487951 5.665495 15.583458 -0.589404 4.540717 -0.262901 0.155800 -2.543600 -7.010400 18.618536 2.714105 -13.421353 -0.196671 -6.706060 18.862682 -0.059709 -1.330374 -3.955355 -0.375200 -3.934100 10.891200 1.541831 -1.167105 -2.009125 0.976479 -0.943573 8.615598 2.160613 0.700283 31.527455 0.427000 0.673100 12.436400 -96.609510 -7.900496 24.008514 6.485865 -15.187770 -0.879293 -0.199326 -0.684897 2.209104 -7.125000 0.000000 0.000000 93.772850 6.521097 8.247324 -9.750366 21.497337 -2.184731 0.738134 0.937940 33.649277 7.125000 0.000000 0.000000 
0.833887 17.807429 -14.163701 -2.170565 -1.983323 7.152464 -14.034647 4.361496 -15.296585 -0.488509 5.664003 15.578409 -0.594662 4.564384 -0.280191 0.160500 -2.581500 -7.115600 18.634249 2.700839 -13.392218 -0.192682 -6.692908 18.827466 -0.050739 -1.381193 -3.968533 -0.373200 -3.923500 10.861700 1.545416 -1.192999 -2.013063 0.970154 -0.955201 8.619533 2.173063 0.700375 31.568599 0.434400 0.674200 12.456700 -96.617868 -7.925378 24.169350 6.539082 -15.285155 -0.894366 -0.196464 -0.686406 2.050537 -7.125000 0.000000 0.000000 93.771951 6.538243 8.259638 -9.773094 21.533517 -2.194428 0.737682 0.937479 33.593185 7.125000 0.000000 0.000000 
0.835410 17.808038 -14.158423 -2.188143 -1.935318 7.164796 -14.021628 4.344166 -15.292623 -0.489083 5.662549 15.573198 -0.599840 4.587478 -0.297509 0.164800 -2.615400 -7.209800 18.653013 2.694466 -13.363021 -0.188930 -6.680562 18.793816 -0.040424 -1.440553 -3.987432 -0.370800 -3.911400 10.827600 1.548730 -1.216658 -2.016299 0.962314 -0.965589 8.624880 2.186691 0.698224 31.599303 0.442100 0.674200 12.470200 -96.621202 -7.957476 24.342127 6.593019 -15.384028 -0.909860 -0.192843 -0.688209 1.881049 -7.125000 0.000000 0.000000 93.774564 6.556768 8.273812 -9.796768 21.571082 -2.204398 0.737391 0.936846 33.540619 7.125000 0.000000 0.000000 
0.836730 17.808444 -14.153347 -2.202584 -1.891867 7.177944 -14.011147 4.325298 -15.288182 -0.489911 5.660608 15.566858 -0.604628 4.608911 -0.315500 0.168500 -2.644600 -7.290800 18.668598 2.695438 -13.337055 -0.185964 -6.670776 18.767234 -0.029695 -1.502741 -4.011767 -0.368300 -3.898100 10.790100 1.550786 -1.235008 -2.018839 0.953399 -0.973194 8.630718 2.204498 0.692512 31.621432 0.451600 0.672600 12.477800 -96.619796 -7.998671 24.511034 6.644805 -15.478830 -0.924917 -0.189056 -0.689927 1.718498 -7.125000 0.000000 0.000000 93.780982 6.572952 8.293268 -9.823145 21.613213 -2.215519 0.737017 0.936328 33.487403 7.125000 0.000000 0.000000 
0.837846 17.808850 -14.148678 -2.213894 -1.853640 7.191202 -14.002685 4.305281 -15.283312 -0.490607 5.658939 15.561224 -0.608804 4.627362 -0.334592 0.171400 -2.667000 -7.353100 18.680980 2.703871 -13.312778 -0.183591 -6.662918 18.745589 -0.018855 -1.566232 -4.040264 -0.366000 -3.886400 10.757300 1.551729 -1.247783 -2.020838 0.944489 -0.978111 8.636347 2.226637 0.683458 31.637396 0.463500 0.669400 12.481500 -96.613745 -8.051503 24.678320 6.691338 -15.563402 -0.938316 -0.185592 -0.691404 1.560804 -7.125000 0.000000 0.000000 93.790361 6.586663 8.315623 -9.851882 21.658763 -2.227455 0.736288 0.936079 33.436372 7.125000 0.000000 0.000000 
0.838760 17.808951 -14.144110 -2.222456 -1.819728 7.204076 -13.996479 4.286389 -15.278314 -0.491407 5.657419 15.556379 -0.611817 4.640899 -0.353478 0.173400 -2.682400 -7.395900 18.690707 2.713409 -13.292814 -0.181937 -6.657271 18.730005 -0.008784 -1.625442 -4.069455 -0.363400 -3.872300 10.717600 1.551707 -1.256114 -2.022742 0.935644 -0.980960 8.639767 2.251252 0.670693 31.648620 0.476300 0.664400 12.481200 -96.603990 -8.111494 24.834244 6.732312 -15.637168 -0.950140 -0.183145 -0.692434 1.414484 -7.125000 0.000000 0.000000 93.800639 6.591565 8.350390 -9.884578 21.711091 -2.241161 0.735232 0.935955 33.379772 7.125000 0.000000 0.000000 
